<?xml version="1.0" encoding="UTF-8"?>
<svg version="1.1" xmlns="http://www.w3.org/2000/svg" width="569" height="569">
<path d="M0 0 C1.31536367 0.05381788 1.31536367 0.05381788 2.65730035 0.10872298 C8.90785517 0.42200945 14.46614366 1.60375057 20.40267944 3.58259583 C22.31778356 4.00638637 24.23456291 4.42265535 26.15267944 4.83259583 C36.83168228 7.47110108 47.03877874 12.90800582 56.40267944 18.58259583 C57.27666382 19.09693176 58.15064819 19.6112677 59.05111694 20.14118958 C86.332029 37.14604763 105.76157819 66.95870303 113.11117554 98.02033997 C115.68946531 109.76539673 116.70155825 121.39792597 116.7215271 133.40534973 C116.73085738 134.82995147 116.74103047 136.25454789 116.75196838 137.67913818 C116.77900552 141.50856825 116.7943509 145.337962 116.80739641 149.16746187 C116.82322489 153.21826451 116.84997403 157.2689964 116.87542725 161.31974792 C116.92205554 169.00303678 116.95883967 176.68633992 116.99210012 184.36969697 C117.03002689 193.00907277 117.07971185 201.64836829 117.13008428 210.28767896 C117.41345553 259.22134712 117.41599641 308.14951738 117.16696453 357.08335114 C117.1219204 365.99422067 117.08243362 374.90504762 117.0562439 383.81599426 C117.03312202 391.68024275 116.99961618 399.54436901 116.95397788 407.40852022 C116.9303303 411.5402476 116.9114148 415.67185671 116.90506554 419.8036499 C116.85170902 450.34880997 114.21029591 476.40009862 99.40267944 503.58259583 C98.92185913 504.49396301 98.44103882 505.4053302 97.94564819 506.34431458 C93.74517686 513.86158459 88.11419185 520.18973953 82.40267944 526.58259583 C81.80584351 527.25290833 81.20900757 527.92322083 80.59408569 528.61384583 C58.14748114 552.34791149 25.03513416 565.05096076 -7.098436 566.76988089 C-10.61908023 566.83975181 -14.13491979 566.85426826 -17.65623474 566.84329224 C-19.00103916 566.84632286 -20.34584185 566.85021685 -21.69064158 566.8548848 C-25.33894385 566.86505634 -28.98714666 566.86301111 -32.63545668 566.85870421 C-36.58854996 566.85621701 -40.5416205 566.86527566 -44.4947052 566.8727417 C-52.22106607 566.88543572 -59.9473921 566.88728904 -67.67376164 566.88494144 C-73.95948502 566.88315219 -80.2451979 566.88492087 -86.53092003 566.88916588 C-87.87722763 566.89005866 -87.87722763 566.89005866 -89.25073337 566.89096948 C-91.0745892 566.89218134 -92.89844503 566.89339547 -94.72230085 566.89461186 C-111.79378074 566.90546696 -128.86524083 566.90333452 -145.93672182 566.89722701 C-161.52089481 566.89205949 -177.10500525 566.90331258 -192.68916587 566.92232523 C-208.72912958 566.94174247 -224.76906376 566.94995284 -240.80903929 566.94620198 C-249.79897635 566.94429585 -258.7888602 566.94671992 -267.77878761 566.96091652 C-275.43200185 566.97288095 -283.08513013 566.97417883 -290.73834566 566.96212635 C-294.63532349 566.95627301 -298.53214447 566.95503876 -302.42911148 566.96712875 C-337.34213942 567.0679019 -366.99426807 561.43930847 -395.59732056 540.58259583 C-396.20736938 540.14012512 -396.81741821 539.69765442 -397.44595337 539.24177551 C-415.35450699 526.10631075 -427.63587039 509.92296124 -435.85220337 489.38728333 C-436.51422338 487.78385871 -437.25010692 486.21137977 -437.99575806 484.64509583 C-440.90942229 478.42927879 -442.48356024 472.22498826 -443.78482056 465.52009583 C-443.93974976 464.72450256 -444.09467896 463.9289093 -444.25430298 463.10920715 C-447.46735273 445.20393211 -447.89425949 427.44580902 -447.85876989 409.29965341 C-447.8541791 405.8153925 -447.86126181 402.33115029 -447.86672974 398.84689331 C-447.87555888 392.04482869 -447.87373 385.24280855 -447.86790445 378.44074228 C-447.86335812 372.89892515 -447.8627878 367.35712036 -447.86495209 361.8153019 C-447.86525855 361.02168313 -447.86556502 360.22806437 -447.86588077 359.41039655 C-447.86652034 357.79722763 -447.86716877 356.18405872 -447.86782596 354.57088981 C-447.87351136 339.488623 -447.8670017 324.40638061 -447.85622522 309.32411782 C-447.84731044 296.45054809 -447.84882811 283.5770145 -447.85806274 270.70344543 C-447.86883028 255.6863147 -447.87294231 240.66920536 -447.86683822 225.6520713 C-447.86620126 224.04200193 -447.86557252 222.43193255 -447.86495209 220.82186317 C-447.86464354 220.03009733 -447.86433499 219.23833148 -447.86401708 218.42257273 C-447.86230802 212.90856822 -447.86516644 207.39457754 -447.86991119 201.88057518 C-447.87559352 195.12958195 -447.87385354 188.37863505 -447.86334971 181.62764695 C-447.85818668 178.19902887 -447.85699556 174.77054901 -447.86264801 171.34192276 C-447.8834876 157.39714505 -447.61123026 143.51515371 -446.70614624 129.59976196 C-446.6286748 128.40067945 -446.55120335 127.20159694 -446.47138429 125.9661786 C-444.55793817 99.22350996 -444.55793817 99.22350996 -439.40664673 87.48957825 C-438.32395015 84.93846423 -437.39319151 82.34216563 -436.45498657 79.73518372 C-432.57755997 69.00475122 -427.77701819 60.48051169 -420.59732056 51.58259583 C-418.85114649 49.29913743 -417.1090527 47.01268206 -415.37075806 44.72322083 C-409.8051139 38.00521863 -402.89576189 32.56836665 -396.24234009 26.97615051 C-394.90655778 25.8445617 -393.5905911 24.68961152 -392.28091431 23.52790833 C-385.80795509 18.03032653 -378.18228411 14.83836589 -370.48110962 11.42683411 C-368.98345308 10.75564485 -367.50202686 10.04826562 -366.02700806 9.32868958 C-351.60689508 2.33795039 -334.97354937 0.28081338 -319.15386963 0.2973938 C-317.20166852 0.28764685 -317.20166852 0.28764685 -315.21002901 0.27770299 C-311.63109972 0.26011169 -308.05224252 0.25461539 -304.47327542 0.25126255 C-300.59979289 0.24547403 -296.72635795 0.22828378 -292.85290527 0.21257019 C-285.27520631 0.18362187 -277.69751659 0.16511758 -270.11977835 0.15023009 C-261.27470498 0.13247677 -252.42967279 0.10445668 -243.58462815 0.07609787 C-227.78369979 0.02580293 -211.98276113 -0.01496649 -196.18179321 -0.05046082 C-180.89335467 -0.08481014 -165.6049568 -0.12622955 -150.31655884 -0.17546082 C-149.3763118 -0.17848777 -148.43606477 -0.18151472 -147.4673254 -0.1846334 C-146.05926149 -0.18916646 -146.05926149 -0.18916646 -144.62275183 -0.19379109 C-127.16696839 -0.24991378 -109.71117087 -0.29896259 -92.25535811 -0.34499114 C-86.1099978 -0.36136553 -79.96464599 -0.37985749 -73.81929398 -0.39906883 C-66.30815622 -0.42242118 -58.79701971 -0.44169338 -51.2858593 -0.45610174 C-47.46338408 -0.46350969 -43.64093221 -0.4724775 -39.81847382 -0.48615074 C-26.54038151 -0.53250455 -13.26912995 -0.56460434 0 0 Z M-41.59709537 10.49243701 C-45.52696068 10.50094167 -49.45683114 10.50352863 -53.38670349 10.5070343 C-62.84405931 10.51681209 -72.30138455 10.53646153 -81.75872144 10.55729505 C-86.2259369 10.56691769 -90.6931544 10.57547226 -95.16037178 10.5841465 C-110.02815111 10.61341006 -124.89592188 10.64513463 -139.76367855 10.68436718 C-143.60853509 10.69448518 -147.45339165 10.70459711 -151.29824829 10.7146759 C-152.73142612 10.71843622 -152.73142612 10.71843622 -154.19355703 10.72227249 C-169.68131308 10.76244727 -185.16904539 10.78561255 -200.65684336 10.80165454 C-216.59856456 10.81843509 -232.54020093 10.85017756 -248.48186404 10.89653856 C-257.41641776 10.92216055 -266.35088195 10.94140149 -275.28547478 10.94391441 C-282.89007318 10.94610482 -290.49449214 10.96197807 -298.09902065 10.99524691 C-301.97159829 11.01178375 -305.84391361 11.02215466 -309.71652603 11.01494026 C-331.94912112 10.94666504 -331.94912112 10.94666504 -353.59732056 15.58259583 C-354.82598311 15.96045321 -356.05464567 16.3383106 -357.32054043 16.72761822 C-381.73571859 24.49508369 -404.92724287 41.07168111 -417.59732056 63.58259583 C-418.25216431 64.64993958 -418.90700806 65.71728333 -419.58169556 66.81697083 C-428.29062748 81.13021425 -432.8191246 96.1157586 -435.59732056 112.58259583 C-435.76384188 113.56178702 -435.9303632 114.54097822 -436.10193062 115.54984188 C-436.79706943 120.48124383 -436.82775577 125.41874269 -436.90905762 130.39157104 C-436.92952125 131.45881672 -436.94998488 132.5260624 -436.97106862 133.62564886 C-437.03663988 137.16469187 -437.09467779 140.7038028 -437.15151978 144.24299622 C-437.17248207 145.47694882 -437.19344436 146.71090142 -437.21504188 147.98224652 C-437.68540103 175.98447017 -437.74555171 203.9850575 -437.73164606 231.9908092 C-437.72982565 236.08987214 -437.73021874 240.18893315 -437.73113632 244.28799629 C-437.73128956 244.98044232 -437.73144279 245.67288836 -437.73160066 246.3863176 C-437.73192054 247.79497226 -437.73224475 249.20362691 -437.73257326 250.61228157 C-437.73537809 263.60361232 -437.73221714 276.59493583 -437.72677289 289.58626539 C-437.72226984 300.67611019 -437.72311898 311.76594455 -437.72769165 322.85578918 C-437.73305943 335.87928105 -437.73514439 348.90276677 -437.73207939 361.92625958 C-437.73176095 363.31617645 -437.73144658 364.70609333 -437.73113632 366.09601021 C-437.73098205 366.7791828 -437.73082777 367.46235539 -437.73066882 368.16623018 C-437.72981319 372.9298467 -437.73124489 377.69345922 -437.73361588 382.45707512 C-437.73651908 388.85746665 -437.73447422 395.2578385 -437.72872162 401.65822792 C-437.72740929 403.99095502 -437.72776188 406.32368381 -437.72998428 408.65641022 C-438.007828 432.72520169 -438.007828 432.72520169 -434.90982056 456.52009583 C-434.73611938 457.34799622 -434.56241821 458.17589661 -434.38345337 459.02888489 C-427.55760025 490.10603591 -411.87936879 515.86839216 -385.78872681 534.55915833 C-379.65336237 538.44914459 -373.21208912 541.59823472 -366.59732056 544.58259583 C-365.53900024 545.06728333 -364.48067993 545.55197083 -363.39028931 546.05134583 C-347.62404876 552.6897629 -330.93219067 554.18313742 -314.01773071 554.18757629 C-312.14351986 554.20240061 -310.2693214 554.2188642 -308.39513779 554.23680496 C-303.32981878 554.28022951 -298.26467744 554.29938727 -293.19920301 554.31355524 C-288.86799026 554.32881056 -284.53692264 554.35849979 -280.20578873 554.38823736 C-266.19816287 554.48428195 -252.19055361 554.53474765 -238.18266487 554.57266045 C-234.62218559 554.58252692 -231.06171109 554.593447 -227.50123596 554.60470581 C-195.29717737 554.7056521 -163.09338673 554.72723073 -130.88919377 554.71116805 C-121.01349196 554.70674957 -111.13780259 554.70997876 -101.26210153 554.71479332 C-91.53762578 554.71933842 -81.81315543 554.71997192 -72.08867896 554.71735466 C-66.36800883 554.71581566 -60.64734725 554.71553397 -54.9266777 554.71889114 C-49.62145057 554.72179501 -44.31624716 554.71974846 -39.01102257 554.71399689 C-37.08623608 554.71268826 -35.16144755 554.71303059 -33.23666191 554.71525955 C-10.85310865 554.87829451 -10.85310865 554.87829451 11.27767944 551.95759583 C12.10010132 551.78719788 12.92252319 551.61679993 13.76986694 551.4412384 C27.49604608 548.4111739 40.72208706 543.48026908 52.40267944 535.58259583 C53.37205444 534.92775208 54.34142944 534.27290833 55.34017944 533.59822083 C68.36089862 524.30739516 78.75819641 512.99036543 87.40267944 499.58259583 C88.12326538 498.48431458 88.84385132 497.38603333 89.58627319 496.25447083 C101.17888482 477.4082591 104.55849706 455.89881687 104.54312134 434.12495422 C104.5457103 432.78446636 104.54872493 431.44397927 104.55212474 430.10349321 C104.56013563 426.44392076 104.56198098 422.78436799 104.56272221 419.12478781 C104.56458314 415.16820349 104.57213562 411.21162914 104.57885742 407.25505066 C104.59239915 398.61421534 104.59845895 389.97338468 104.60286808 381.33254051 C104.60563755 375.92948687 104.60987616 370.52643501 104.61437225 365.12338257 C104.62655947 350.14176801 104.63685987 335.16015487 104.64024734 320.17853546 C104.64057669 318.74219255 104.64057669 318.74219255 104.6409127 317.27683261 C104.64113097 316.31707883 104.64134925 315.35732506 104.64157414 314.36848783 C104.6420176 312.42390664 104.64246416 310.47932545 104.64291382 308.53474426 C104.64324596 307.08789854 104.64324596 307.08789854 104.64358482 305.61182362 C104.64752984 289.9950035 104.6649773 274.37823013 104.68827334 258.76142806 C104.71203921 242.69902644 104.72445157 226.63664823 104.72561526 210.57422876 C104.72652908 201.56744493 104.73220719 192.56072203 104.75043488 183.55395508 C104.7659067 175.88232658 104.77091485 168.21077786 104.76269677 160.53913671 C104.75881518 156.63206304 104.75959642 152.72514965 104.77375412 148.81809616 C104.82606254 133.51377156 104.7982097 118.58184891 101.40267944 103.58259583 C101.19928074 102.62645134 100.99588203 101.67030685 100.78631973 100.68518829 C100.32675038 98.58479035 99.80036701 96.52615381 99.21517944 94.45759583 C99.00941284 93.72589172 98.80364624 92.99418762 98.59164429 92.24031067 C96.38358532 84.84880542 93.10893957 78.11679688 89.39047241 71.37849426 C88.47438886 69.71297014 87.59508178 68.02736135 86.71908569 66.34040833 C82.71414162 58.94518785 77.66183865 52.99418174 71.81137085 47.03962708 C70.46715307 45.6492819 69.17354178 44.21053518 67.88314819 42.77009583 C53.41634847 27.12550749 32.6641521 17.91086453 12.15267944 13.14509583 C11.50557007 12.99306702 10.85846069 12.84103821 10.19174194 12.68440247 C-6.64571779 9.21580322 -24.50201874 10.45064728 -41.59709537 10.49243701 Z " fill="#000000" transform="translate(448.5973205566406,1.4174041748046875)"/>
<path d="M0 0 C32.42776973 19.71209564 32.42776973 19.71209564 36.55859375 34.46875 C38.92017494 48.01126865 35.02469136 58.36383315 28.828125 70.19140625 C27.71259344 72.62768508 27.19571298 75.16634651 26.6015625 77.76953125 C22.54073613 92.82623161 13.47894157 107.1393787 4.9453125 120.046875 C3.75566591 121.85284453 2.61220528 123.69174193 1.5546875 125.578125 C0 128 0 128 -2.37890625 130.24609375 C-5.77950274 133.81900064 -7.73190802 137.68326238 -9.9375 142.0625 C-10.37425049 142.90941406 -10.81100098 143.75632813 -11.26098633 144.62890625 C-13.62415036 149.22645392 -15.91730367 153.8558618 -18.1875 158.5 C-20.04083659 162.25858737 -22.07110394 165.7501489 -24.375 169.25 C-27.12877069 173.46764879 -29.47994924 177.79112566 -31.6875 182.3125 C-37.6490882 194.49976046 -44.29133617 206.32225187 -50.87478638 218.1817627 C-52.56384396 221.22451867 -54.25121651 224.26820583 -55.9375 227.3125 C-56.27736938 227.9259729 -56.61723877 228.5394458 -56.96740723 229.17150879 C-62.24339948 238.70582413 -67.34032498 248.32073096 -72.33203125 258.00756836 C-77.26864898 267.57303657 -82.386303 277.03598991 -87.60888672 286.44824219 C-88.59866379 288.26381782 -89.56105834 290.09443707 -90.50439453 291.93457031 C-94.71483788 300.04387077 -98.69955351 303.59309786 -106.9375 307.5 C-113.54187681 310.71625212 -120.00489675 314.14092224 -126.4375 317.6875 C-134.37723145 322.06031681 -142.37768367 326.29045242 -150.4375 330.4375 C-158.76571052 334.73031221 -166.98309174 339.17597632 -175.125 343.8125 C-176.0749585 344.35213379 -177.02491699 344.89176758 -178.00366211 345.44775391 C-183.17573651 348.38792241 -183.17573651 348.38792241 -188.33886719 351.34375 C-190.38485374 352.51445308 -192.44034951 353.66606103 -194.5 354.8125 C-195.6034375 355.43769531 -196.706875 356.06289063 -197.84375 356.70703125 C-201.6014497 358.24638595 -203.97824414 358.6041858 -208 358 C-210.68408203 356.17016602 -210.68408203 356.17016602 -213 353 C-213.71010079 349.24740605 -213.57803407 345.57196216 -213.4609375 341.765625 C-213.44259857 340.62893372 -213.42425964 339.49224243 -213.40536499 338.32110596 C-213.08459731 324.15130396 -211.94900193 310.0235692 -210.79876709 295.90197754 C-210.50874654 292.3102865 -210.23176015 288.71758887 -209.953125 285.125 C-209.52313349 279.59831447 -209.07762355 274.07313937 -208.61816406 268.54882812 C-208.22534756 263.82519105 -207.86045937 259.10145337 -207.53027344 254.37304688 C-207.38238722 252.4205558 -207.23429173 250.46808057 -207.0859375 248.515625 C-207.03418365 247.6674823 -206.98242981 246.8193396 -206.92910767 245.94549561 C-206.25614084 237.56959299 -202.70940624 230.9585214 -198.53125 223.76953125 C-197.88381836 222.64820801 -197.23638672 221.52688477 -196.56933594 220.37158203 C-196.23188354 219.79136292 -195.89443115 219.2111438 -195.54675293 218.61334229 C-193.74447315 215.51268544 -191.95828066 212.4027903 -190.171875 209.29296875 C-189.8139386 208.67031128 -189.4560022 208.04765381 -189.08721924 207.40612793 C-184.39761324 199.23121083 -179.91464491 190.94487421 -175.43554688 182.65332031 C-172.96953758 178.09539701 -170.48367426 173.54831386 -168 169 C-165.01865363 163.5377441 -162.03932463 158.07444065 -159.0703125 152.60546875 C-152.07703316 139.73406719 -144.95436163 126.93897532 -137.77783203 114.16894531 C-136.02243988 111.03999857 -134.27375048 107.90740701 -132.52734375 104.7734375 C-125.18940136 91.61371631 -117.73135422 78.52999359 -110.1796875 65.4921875 C-109.34981323 64.0525061 -109.34981323 64.0525061 -108.50317383 62.58374023 C-107.6020964 61.03491737 -106.68910822 59.49280036 -105.75268555 57.96508789 C-103.32999961 53.96963459 -102.10359197 50.23088294 -101.0625 45.6875 C-98.67382849 36.07104822 -95.35018325 26.98170477 -87 21 C-85.67998144 20.59904762 -84.3449818 20.24447844 -83 19.9375 C-79.72747784 18.93250279 -79.04985026 18.08386441 -77.25390625 15.0625 C-76.37546273 13.23724174 -75.5430123 11.39441431 -74.70825195 9.54882812 C-70.55685899 0.54194365 -64.63290205 -5.90547246 -55.5546875 -10.0625 C-35.13997467 -17.55413774 -17.71674213 -10.46533576 0 0 Z M-59.58984375 10.70703125 C-61.40936693 13.66564651 -62.16256869 16.64622921 -63 20 C-61.54488932 20.72755534 -60.08975193 21.45505729 -58.63452148 22.18237305 C-57.25604091 22.87186455 -55.87796931 23.56217413 -54.50024414 24.25317383 C-49.99504149 26.51079421 -45.48078063 28.7485049 -40.95703125 30.96875 C-27.19632426 37.74834409 -13.74208118 44.90745665 -0.46435547 52.58984375 C2.66746841 54.38193952 5.83260254 56.10989185 9.00756836 57.82421875 C11 59 11 59 13.13110352 60.64453125 C14.88505216 62.19570495 14.88505216 62.19570495 17 62 C22.50307205 50.78264834 22.50307205 50.78264834 22.3671875 38.69140625 C18.81287338 29.83548914 12.87021058 24.38284177 4.75 19.6875 C3.97148682 19.22601563 3.19297363 18.76453125 2.39086914 18.2890625 C-0.06373943 16.84323428 -2.53020578 15.41970669 -5 14 C-5.80775879 13.53029785 -6.61551758 13.0605957 -7.44775391 12.57666016 C-9.8124349 11.20526946 -12.18507758 9.84916463 -14.5625 8.5 C-15.2750293 8.09096436 -15.98755859 7.68192871 -16.72167969 7.26049805 C-31.4708183 -0.95466902 -47.65127815 -2.98139503 -59.58984375 10.70703125 Z M-83.25 38.8125 C-85.0032648 42.0059466 -85.65711651 44.39972338 -86 48 C-82.20745973 51.2750467 -78.23898193 53.56032038 -73.75 55.71875 C-72.31631197 56.42168275 -70.88272139 57.12481427 -69.44921875 57.828125 C-68.71364746 58.18648437 -67.97807617 58.54484375 -67.22021484 58.9140625 C-63.65532399 60.65769946 -60.10974843 62.43957486 -56.5625 64.21875 C-55.13811873 64.93118535 -53.71363908 65.64342403 -52.2890625 66.35546875 C-49.4296875 67.78515625 -46.5703125 69.21484375 -43.7109375 70.64453125 C-43.00457153 70.99769409 -42.29820557 71.35085693 -41.57043457 71.71472168 C-40.15329583 72.4233316 -38.73622181 73.13207095 -37.31921387 73.84094238 C-33.79570857 75.60340841 -30.27108784 77.36357134 -26.74414062 79.11914062 C-19.28639417 82.83388027 -11.85949677 86.59295497 -4.5 90.5 C-3.66597656 90.94085938 -2.83195312 91.38171875 -1.97265625 91.8359375 C0.01907685 92.88903776 2.0099671 93.94369158 4 95 C6.85534774 92.30322763 8.28023766 89.73799265 9.875 86.125 C10.34679687 85.09632813 10.81859375 84.06765625 11.3046875 83.0078125 C12.25074131 80.06403159 12.25074131 80.06403159 11.22265625 77.484375 C7.89136081 73.76081806 3.87512134 71.58462803 -0.4375 69.125 C-1.3440332 68.59616211 -2.25056641 68.06732422 -3.18457031 67.52246094 C-4.98271243 66.47466894 -6.78359373 65.43156125 -8.58740234 64.39355469 C-11.49590471 62.71355757 -14.3702286 60.97865946 -17.25 59.25 C-23.65861015 55.53264608 -30.287519 52.2819815 -36.93554688 49.02050781 C-38.96980273 48.01492722 -40.99394511 46.99153971 -43.015625 45.9609375 C-49.83760889 42.48861029 -56.70350039 39.13555835 -63.6875 36 C-64.34685547 35.69698975 -65.00621094 35.39397949 -65.68554688 35.08178711 C-73.20746779 31.76906935 -77.9806391 32.22579888 -83.25 38.8125 Z M-92 62 C-95.12140438 65.79630263 -97.47916436 69.78871855 -99.8125 74.10546875 C-100.3381958 75.07572998 -100.8638916 76.04599121 -101.40551758 77.0456543 C-101.93169678 78.02058838 -102.45787598 78.99552246 -103 80 C-109.23009448 91.5161709 -115.51328802 102.9807754 -122.12231445 114.28466797 C-125.61726388 120.28274824 -128.92538458 126.35987454 -132.1484375 132.5078125 C-133.51185425 135.07932004 -134.89794586 137.62721632 -136.31640625 140.16796875 C-139.46192537 145.80706126 -142.50887659 151.49827842 -145.5625 157.1875 C-153.62040521 172.17341966 -161.72222579 187.13419976 -170 202 C-170.80087449 203.44265657 -171.60165433 204.8853657 -172.40234375 206.328125 C-173.78998692 208.82816734 -175.1825851 211.3251716 -176.58251953 213.81835938 C-178.25066537 216.79109955 -179.9072108 219.77008579 -181.5625 222.75 C-182.08779297 223.67941406 -182.61308594 224.60882813 -183.15429688 225.56640625 C-185.6255283 230.03753489 -187.64669327 233.79518863 -188 239 C-181.06863428 243.99290221 -181.06863428 243.99290221 -173.125 246.8125 C-168.25739325 245.54692225 -166.15454066 241.91075431 -163.65478516 237.77368164 C-162.14709035 235.07705422 -160.69229381 232.35717035 -159.25 229.625 C-158.69707275 228.59133301 -158.14414551 227.55766602 -157.57446289 226.49267578 C-156.0398103 223.61940055 -154.51170434 220.74277098 -152.98736572 217.86401367 C-151.25871626 214.60055601 -149.52538827 211.33958237 -147.79296875 208.078125 C-145.60727887 203.96225356 -143.42212196 199.84610095 -141.23828125 195.72924805 C-132.59579799 179.44316942 -123.75377041 163.28465912 -114.64575195 147.25390625 C-111.11780132 141.02729902 -107.697671 134.7569727 -104.37988281 128.41625977 C-101.34161439 122.61498839 -98.20973544 116.86778603 -95.0625 111.125 C-87.81110488 97.87535229 -80.6300399 84.57413432 -74 71 C-74.99 70.443125 -75.98 69.88625 -77 69.3125 C-80.49574616 67.33015614 -83.85586128 65.17570811 -87.203125 62.953125 C-89.10270487 61.76570326 -89.10270487 61.76570326 -92 62 Z M-62 78 C-72.37095663 96.01881291 -82.31279335 114.24852909 -92.0703125 132.60546875 C-92.39267883 133.21171585 -92.71504517 133.81796295 -93.04718018 134.44258118 C-94.71562171 137.58090588 -96.38155155 140.72052785 -98.04394531 143.86206055 C-102.07201527 151.46181637 -106.2178726 158.97698849 -110.5 166.4375 C-114.87774534 174.12598187 -119.03579395 181.86078635 -122.92578125 189.8046875 C-125.45248825 194.95349631 -128.09920216 200.03923568 -130.75 205.125 C-131.51038574 206.58498413 -131.51038574 206.58498413 -132.28613281 208.07446289 C-135.37312208 213.97243626 -138.53962296 219.81988861 -141.76611328 225.64257812 C-145.85590966 233.03442987 -149.87425553 240.43265696 -153.375 248.125 C-153.67962158 248.77009521 -153.98424316 249.41519043 -154.2980957 250.07983398 C-155.43112421 252.6727734 -156.14784814 254.40116185 -155.45703125 257.19921875 C-151.57583842 261.99608173 -146.10164925 265.36950522 -140.25 267.125 C-136.23825692 266.97070219 -134.38518022 266.1783271 -131 264 C-129.0945111 261.5277311 -127.72333525 258.83976739 -126.3125 256.0625 C-125.44700821 254.43078073 -124.58110771 252.79927821 -123.71484375 251.16796875 C-123.27124512 250.31895996 -122.82764648 249.46995117 -122.37060547 248.59521484 C-120.56046178 245.16774291 -118.67183478 241.7866219 -116.78295898 238.40209961 C-113.12561723 231.83765632 -109.56073477 225.24618286 -106.25 218.5 C-93.24894158 192.04992455 -78.58677018 166.28815884 -64 140.6875 C-60.1696977 133.95778398 -56.49293078 127.20142421 -53.11328125 120.23461914 C-49.4077951 112.65068506 -45.29676735 105.28098041 -41.21484375 97.89477539 C-40.66957031 96.90082764 -40.12429688 95.90687988 -39.5625 94.8828125 C-38.82193359 93.54307373 -38.82193359 93.54307373 -38.06640625 92.17626953 C-36.85332446 90.10458908 -36.85332446 90.10458908 -37 88 C-40.41453114 86.51586841 -43.83197571 85.03856685 -47.25 83.5625 C-48.21808594 83.14162109 -49.18617188 82.72074219 -50.18359375 82.28710938 C-51.11816406 81.88427734 -52.05273438 81.48144531 -53.015625 81.06640625 C-54.30388184 80.5086853 -54.30388184 80.5086853 -55.61816406 79.93969727 C-57.73988264 79.10262318 -59.77586153 78.48850005 -62 78 Z M-24 97 C-29.24504327 105.34782692 -34.12423192 113.75137522 -38.69760132 122.48550415 C-40.42288166 125.7786796 -42.1634222 129.06374061 -43.90625 132.34765625 C-44.42828255 133.33130409 -44.42828255 133.33130409 -44.96086121 134.33482361 C-48.09673616 140.22193947 -51.37063509 146.02555346 -54.6875 151.8125 C-59.75750497 160.67369521 -64.52579486 169.66358695 -69.19824219 178.73999023 C-72.68550751 185.505096 -76.26506096 192.20875793 -79.9375 198.875 C-84.4661038 207.10026958 -88.82595196 215.4025705 -93.125 223.75 C-97.10554525 231.47671739 -101.1266457 239.16680843 -105.375 246.75 C-105.77082275 247.45850098 -106.16664551 248.16700195 -106.57446289 248.89697266 C-108.10277397 251.62786289 -109.6342232 254.35675299 -111.18115234 257.07714844 C-112.32039621 259.08657566 -113.44274198 261.10466632 -114.5625 263.125 C-115.20316406 264.26195312 -115.84382813 265.39890625 -116.50390625 266.5703125 C-118.26939695 270.61757317 -118.77491151 273.59929042 -119 278 C-116.44071421 282.69202395 -112.66498867 284.70991465 -108 287 C-107.01 287 -106.02 287 -105 287 C-103.26486695 284.72523231 -103.26486695 284.72523231 -101.6875 281.75 C-100.75357422 280.08130859 -100.75357422 280.08130859 -99.80078125 278.37890625 C-98.26857711 275.5039462 -96.8022674 272.61533857 -95.375 269.6875 C-88.80056882 256.27282505 -81.02862663 243.41288727 -73.46875 230.53515625 C-70.88442651 226.07444895 -68.43855451 221.5415831 -66 217 C-65.38253906 215.85789062 -64.76507813 214.71578125 -64.12890625 213.5390625 C-60.77063519 207.30499724 -57.50341815 201.04003686 -54.375 194.6875 C-46.63662785 179.04493343 -38.30574154 163.66925452 -29.33422852 148.70068359 C-26.25861158 143.53619688 -23.55919579 138.24064552 -20.93359375 132.83203125 C-18.06060531 127.02151052 -14.82968614 121.3932295 -11.64282227 115.75073242 C-11.18576904 114.9332251 -10.72871582 114.11571777 -10.2578125 113.2734375 C-9.8467627 112.54560059 -9.43571289 111.81776367 -9.01220703 111.06787109 C-7.79094671 108.75505369 -7.79094671 108.75505369 -7 105 C-12.61 102.36 -18.22 99.72 -24 97 Z M-192 255 C-193.65611776 256.65611776 -193.20676873 258.65300094 -193.28125 260.93359375 C-193.31806885 261.96750244 -193.3548877 263.00141113 -193.39282227 264.06665039 C-193.42819092 265.17903076 -193.46355957 266.29141113 -193.5 267.4375 C-193.58089721 269.71618638 -193.66293771 271.99483244 -193.74609375 274.2734375 C-193.78718262 275.40749023 -193.82827148 276.54154297 -193.87060547 277.70996094 C-194.05232542 282.33044776 -194.29607514 286.94621353 -194.5625 291.5625 C-194.60632813 292.32296631 -194.65015625 293.08343262 -194.6953125 293.86694336 C-194.7951965 295.57806105 -194.89729924 297.28904906 -195 299 C-193.99582031 299.4846875 -192.99164063 299.969375 -191.95703125 300.46875 C-181.08720092 305.77345157 -170.37308345 311.25478297 -161 319 C-157.10833514 317.51243501 -153.42082381 315.76145444 -149.703125 313.8828125 C-149.11005554 313.58438446 -148.51698608 313.28595642 -147.90594482 312.97848511 C-145.39147854 311.71316182 -142.8794011 310.4431283 -140.3671875 309.17333984 C-127.30239492 302.57602958 -127.30239492 302.57602958 -120.66308594 299.81982422 C-118.79569464 299.01008502 -118.79569464 299.01008502 -117 297 C-117.58007812 296.70609375 -118.16015625 296.4121875 -118.7578125 296.109375 C-126.07951477 291.9048331 -128.83257649 286.67634404 -132 279 C-132.88171875 279.15597656 -133.7634375 279.31195313 -134.671875 279.47265625 C-143.15673727 280.81708865 -149.45460602 280.8267584 -156.77734375 275.90625 C-160.41865403 272.78329848 -162.69561694 269.16254166 -165 265 C-165.71999356 263.73750433 -166.44141783 262.47582381 -167.1640625 261.21484375 C-167.76992188 260.15394531 -168.37578125 259.09304688 -169 258 C-170.73636719 258.05220703 -170.73636719 258.05220703 -172.5078125 258.10546875 C-174.0468604 258.13362207 -175.58592411 258.16092056 -177.125 258.1875 C-177.88554687 258.21263672 -178.64609375 258.23777344 -179.4296875 258.26367188 C-184.4024261 258.32797453 -187.63616482 257.65594442 -192 255 Z M-194 315 C-195.1906259 317.3812518 -195.40469351 319.36594224 -195.75390625 322.0078125 C-195.88603516 322.99394531 -196.01816406 323.98007812 -196.15429688 324.99609375 C-196.28900391 326.02863281 -196.42371094 327.06117188 -196.5625 328.125 C-196.70107422 329.16527344 -196.83964844 330.20554687 -196.98242188 331.27734375 C-197.32480981 333.8511565 -197.6638618 336.42536483 -198 339 C-193.48043862 338.23594808 -190.24327551 336.536911 -186.4375 334.0625 C-179.52354039 329.64546752 -179.52354039 329.64546752 -176 328 C-177.29649539 324.11051384 -178.84909871 323.59180263 -182.3125 321.5 C-187.76890611 318.17807586 -187.76890611 318.17807586 -190.23046875 316.28125 C-191.90587654 314.80451021 -191.90587654 314.80451021 -194 315 Z " fill="#000000" transform="translate(446,67)"/>
<path d="M0 0 C7.32707956 4.68982851 11.42703162 11.13375322 13.6640625 19.4765625 C14.95837028 27.47081646 12.67672073 34.26833639 8.0078125 40.77734375 C4.59033255 44.80382099 1.60416155 47.82219669 -3.16308594 50.13696289 C-3.88204041 50.48843887 -4.60099487 50.83991486 -5.34173584 51.20204163 C-5.88896301 51.46536789 -6.43619019 51.72869415 -7 52 C-6.89265278 60.58814467 -6.78005133 69.17619721 -6.66066074 77.76418209 C-6.60539527 81.75153216 -6.55196963 85.73888952 -6.50268555 89.72631836 C-6.45509524 93.57131601 -6.40275464 97.41622182 -6.34705925 101.26111031 C-6.32661143 102.73116342 -6.30790244 104.20124174 -6.29092598 105.67133904 C-6.26693536 107.72361276 -6.2368741 109.77571147 -6.20532227 111.82788086 C-6.18200584 113.58327431 -6.18200584 113.58327431 -6.15821838 115.37413025 C-6.29584674 117.9252526 -6.29584674 117.9252526 -5 119 C-4.34544638 121.98791604 -3.97282412 124.93999564 -4 128 C-4.7734375 128.99 -4.7734375 128.99 -5.5625 130 C-7.23509616 131.87049305 -7.23509616 131.87049305 -6.828125 134.05859375 C-6.31796041 136.41230767 -5.69566437 138.69483996 -5 141 C-4.62875 142.4540625 -4.62875 142.4540625 -4.25 143.9375 C-3.07931731 146.26516913 -3.07931731 146.26516913 -0.1875 147.5 C2.9361169 148.25777599 2.9361169 148.25777599 5.5 147.0625 C11.41664602 142.18126703 14.95007482 136.91088358 17.54296875 129.73828125 C17.83511765 128.95753738 18.12726654 128.17679352 18.42826843 127.37239075 C21.56725806 118.78577434 23.97377566 110.01841492 26.3125 101.1875 C26.77910186 99.45903725 27.24673397 97.73085232 27.71533203 96.00292969 C29.863911 88.0619684 31.9724425 80.11043405 34.07591248 72.15742493 C34.96089624 68.81616459 35.85134496 65.47637028 36.74203491 62.1366272 C37.35650823 59.81972416 37.96055562 57.50028804 38.5637207 55.18041992 C42.34293283 40.83231612 45.84210374 27.88300724 59.16796875 19.9453125 C64.90194076 16.98663185 71.58661493 17.10276735 77.734375 18.71875 C85.36599311 21.58638832 90.37231341 24.94421604 94.00488281 32.50439453 C96.03826889 37.6038235 97.05962813 42.95425259 98.1875 48.3125 C98.33040466 48.973638 98.47330933 49.634776 98.62054443 50.31594849 C100.73752146 60.12044819 102.55689562 69.9703633 104.27734375 79.8515625 C104.5694297 81.52773903 104.5694297 81.52773903 104.86741638 83.23777771 C105.83577243 88.81931083 106.78717498 94.40313848 107.71557617 99.99145508 C109.29184583 109.35366499 110.92994914 118.64317541 113.5234375 127.78515625 C113.71144928 128.46823349 113.89946106 129.15131073 114.09317017 129.85508728 C115.30944287 133.8632865 116.78967678 136.3049086 120 139 C122.92680775 138.10172174 124.6477389 137.43794623 126.58984375 135.0234375 C131.56655722 125.24311364 133.80249835 114.83764533 136.25878906 104.20117188 C136.96628506 101.14560945 137.69327012 98.09558236 138.4296875 95.046875 C140.47439439 86.58139978 142.50728333 78.11340174 144.49203491 69.63365173 C145.19097846 66.65506534 145.8972395 63.67823817 146.60455322 60.70162964 C146.94708723 59.2526188 147.2864881 57.80286314 147.62249756 56.35232544 C150.89397615 42.23989177 154.68577795 29.80011099 167.06640625 21.1875 C173.31005635 17.3530159 179.72656784 17.03817339 186.7421875 18.6171875 C194.57139643 21.06788171 200.13377742 25.097476 204.30859375 32.23828125 C207.62559163 39.27323279 210.14021002 47.15879378 209 55 C207.81500932 57.7393513 206.23114326 60.07743917 204.5 62.5 C204.07074219 63.13164062 203.64148438 63.76328125 203.19921875 64.4140625 C202.14923683 65.95403599 201.07687006 67.47870738 200 69 C197.50422711 66.50422711 197.25839125 64.74244877 196.4140625 61.328125 C195.97707031 59.61882812 195.97707031 59.61882812 195.53125 57.875 C194.93121866 55.47487464 194.33481204 53.07383993 193.7421875 50.671875 C191.22174619 40.34705817 191.22174619 40.34705817 184 33 C179.09664684 32.43732013 177.02152152 32.39101602 172.75 34.9375 C166.45227851 41.02381761 164.82568154 50.75545796 162.875 58.9375 C162.58713623 60.11465576 162.29927246 61.29181152 162.00268555 62.50463867 C160.98965091 66.66692986 159.99238487 70.83274817 159 75 C158.8015448 75.83285522 158.6030896 76.66571045 158.39862061 77.52380371 C157.75358061 80.23190863 157.10910244 82.94014661 156.46484375 85.6484375 C156.24584412 86.56889359 156.02684448 87.48934967 155.8012085 88.43769836 C154.71342925 93.01260717 153.6291576 97.58829165 152.55224609 102.16577148 C142.40327806 145.21347951 142.40327806 145.21347951 129 155 C124.96417117 157.21970585 121.57099243 157.54232114 117 157 C109.40483378 153.70287358 103.97614377 148.02608709 100.9375 140.375 C94.65967954 121.23024173 91.65666819 101.04771522 88.16259766 81.26123047 C87.41288657 77.01688412 86.65362471 72.77431746 85.89007568 68.53244019 C85.5920424 66.86476007 85.29771549 65.19641266 85.00738525 63.52737427 C82.80731784 46.69654001 82.80731784 46.69654001 74 33 C70.60931367 31.91786606 68.79058439 31.71076181 65.4375 32.9375 C59.58756104 37.88744835 57.1051165 44.73313695 55.125 51.9375 C54.87943359 52.79158447 54.63386719 53.64566895 54.38085938 54.52563477 C53.57386724 57.34682063 52.78603692 60.17290921 52 63 C51.42499907 65.04181315 50.84946633 67.0834766 50.2734375 69.125 C49.08367549 73.35376725 47.90059626 77.58433116 46.72265625 81.81640625 C42.41260754 97.29744665 38.01621539 112.73057543 33 128 C32.74718262 128.77456543 32.49436523 129.54913086 32.23388672 130.34716797 C25.3607579 151.2283879 25.3607579 151.2283879 16 158 C15.38125 158.45375 14.7625 158.9075 14.125 159.375 C10.59044575 160.41457478 7.44919975 160.09151891 4 159 C1.11611959 157.23677187 -1.41138152 155.16387842 -4 153 C-4.99 152.34 -5.98 151.68 -7 151 C-7 153.64 -7 156.28 -7 159 C-4.36 159 -1.72 159 1 159 C0.2575 159.495 -0.485 159.99 -1.25 160.5 C-5.68766892 164.53424447 -7.81401723 168.30928823 -8.22558594 174.26367188 C-8.1682665 178.1843217 -7.98846823 182.0872507 -7.75 186 C-7.61506794 188.64572672 -7.48346375 191.29127571 -7.359375 193.9375 C-7.32585937 194.63387573 -7.29234375 195.33025146 -7.2578125 196.04772949 C-6.42374571 214.84029675 -7.0701922 233.70384165 -7.5 252.5 C-7.54841664 254.70311975 -7.59659458 256.90624476 -7.64453125 259.109375 C-7.76028798 264.40631338 -7.87891872 269.70318078 -8 275 C-7.11014404 274.91403564 -6.22028809 274.82807129 -5.3034668 274.73950195 C-4.13468994 274.63597412 -2.96591309 274.53244629 -1.76171875 274.42578125 C-0.60373779 274.31919189 0.55424316 274.21260254 1.74731445 274.1027832 C6.15418495 273.96352834 8.31520391 274.62535363 12 277 C14.07665189 279.5092877 14.01111108 280.73333413 13.875 284 C12.821484 287.61205484 12.12693215 288.8893208 9 291 C3.73107847 292.21276917 -1.62345938 292.00785298 -7 292 C-7.13899556 301.7095176 -7.24561821 311.41879873 -7.31087303 321.12910843 C-7.34219191 325.63802468 -7.38467363 330.14626054 -7.45263672 334.65478516 C-7.51781136 339.00553829 -7.55370185 343.35563692 -7.56926346 347.70684052 C-7.58035341 349.36712705 -7.60201035 351.02737757 -7.63438034 352.68738556 C-7.677923 355.01275617 -7.68393569 357.33542039 -7.68115234 359.66113281 C-7.702724 360.3480571 -7.72429565 361.03498138 -7.746521 361.74272156 C-7.78229209 363.92502407 -7.78229209 363.92502407 -7 367 C-4.15218948 369.13898819 -4.15218948 369.13898819 -1 371 C-0.01 372.98 0.98 374.96 2 377 C22.79 376.67 43.58 376.34 65 376 C64.84192075 365.31941568 64.84192075 365.31941568 64.63964844 354.63964844 C64.6279611 353.2962369 64.61776938 351.95281115 64.609375 350.609375 C64.58891113 349.91730957 64.56844727 349.22524414 64.54736328 348.51220703 C64.54489194 345.08940065 64.74751155 343.32598274 66.87207031 340.58300781 C69.395982 338.70542138 70.84880664 338.07685837 74 338 C77.48634601 339.62155629 78.84302194 340.76453292 81 344 C81.21118164 346.95507812 81.21118164 346.95507812 81.16015625 350.53125 C81.14919922 351.81644531 81.13824219 353.10164063 81.12695312 354.42578125 C81.1061678 355.78386505 81.08467574 357.1419382 81.0625 358.5 C81.02609118 361.15626106 80.99796817 363.8123306 80.97265625 366.46875 C80.95468994 367.64888672 80.93672363 368.82902344 80.91821289 370.04492188 C80.85877544 373.05942674 80.85877544 373.05942674 82 376 C109.06 376.33 136.12 376.66 164 377 C164 368.09 164 359.18 164 350 C169 344 169 344 172 343.3125 C175 344 175 344 180 349 C180 358.24 180 367.48 180 377 C205.41 377 230.82 377 257 377 C257 366.11 257 355.22 257 344 C260.09635929 340.90364071 260.82908364 340.2979226 265 340 C267.82395092 340.72240605 269.44970332 341.20599712 271.13232422 343.63378906 C272.32497755 346.8862359 272.22367635 349.71148506 272.1953125 353.171875 C272.19031738 354.4206543 272.18532227 355.66943359 272.18017578 356.95605469 C272.16196777 358.53805664 272.14375977 360.12005859 272.125 361.75 C272.08375 366.7825 272.0425 371.815 272 377 C290.48 377 308.96 377 328 377 C328.33 374.69 328.66 372.38 329 370 C332.07303609 361.46661052 337.09497583 354.83672262 345.1875 350.625 C353.0382361 346.94746578 361.44378898 346.85190316 369.625 349.625 C378.11370184 353.08829348 385.65268468 357.66764564 390 366 C393.52256037 375.90052951 394.29216615 384.3887449 390.3828125 394.2578125 C385.5618644 403.81799772 377.26320869 409.53945373 367.5 413.375 C357.66718182 415.13086039 349.11418747 414.09375105 340.8125 408.3125 C334.39295913 403.14617627 331.23953057 397.55890467 328 390 C309.52 390 291.04 390 272 390 C272 396.27 272 402.54 272 409 C268 414 268 414 265.0625 415.125 C262 415 262 415 257 410 C257 403.4 257 396.8 257 390 C231.26 390 205.52 390 179 390 C179.33 395.61 179.66 401.22 180 407 C176.18181818 413.36363636 176.18181818 413.36363636 173 415 C169.9375 414.9375 169.9375 414.9375 167 414 C164 410 164 410 164 390 C136.61 390 109.22 390 81 390 C81 396.6 81 403.2 81 410 C76 415 76 415 72.9375 415.5625 C69.15484722 414.83816223 68.22189682 414.15992576 66 411 C65.50414123 407.57154505 65.62419408 404.20482417 65.75 400.75 C65.76804687 399.81414062 65.78609375 398.87828125 65.8046875 397.9140625 C65.85174327 395.60832985 65.91746287 393.30469055 66 391 C62.09856096 389.7218335 58.18802134 389.87068913 54.1328125 389.90625 C53.34802521 389.90983521 52.56323792 389.91342041 51.75466919 389.91711426 C41.79247286 389.98289143 31.83372062 390.24332306 21.875 390.5 C19.93359882 390.5483808 17.99219257 390.59655891 16.05078125 390.64453125 C11.36712612 390.760695 6.68354714 390.8795641 2 391 C1.57001709 392.18287598 1.57001709 392.18287598 1.13134766 393.38964844 C-0.91540737 398.11211386 -5.49808322 399.90485169 -10 402 C-15.73137448 403.815463 -21.41690665 402.91983693 -27 401 C-32.45027988 398.06523391 -38.14097334 393.13478798 -40 387 C-40 379.80735337 -36.27232777 374.47421946 -31.48046875 369.38671875 C-28.24049796 366.48869738 -25.0924297 365.26751642 -21 364 C-21.00785522 362.06858154 -21.00785522 362.06858154 -21.01586914 360.09814453 C-21.19334801 312.33109562 -21.19334801 312.33109562 -20 291 C-21.16917969 291.05800781 -22.33835937 291.11601562 -23.54296875 291.17578125 C-25.0911058 291.22269449 -26.63928617 291.26819298 -28.1875 291.3125 C-28.95642578 291.35439453 -29.72535156 291.39628906 -30.51757812 291.43945312 C-34.80637364 291.53148736 -36.48598942 291.39150029 -40.015625 288.703125 C-42 286 -42 286 -42.5625 282.4375 C-42 279 -42 279 -40.51171875 276.80078125 C-36.82972859 274.16097182 -33.65777479 274.55994669 -29.25 274.75 C-28.45722656 274.76804687 -27.66445312 274.78609375 -26.84765625 274.8046875 C-24.89791652 274.85166918 -22.94880122 274.92340956 -21 275 C-20.97685751 262.27420277 -20.95907515 249.54841052 -20.94818783 236.82259655 C-20.94296319 230.91386867 -20.9358731 225.00515516 -20.92456055 219.09643555 C-20.91371684 213.39711172 -20.90772 207.69780174 -20.90512276 201.9984684 C-20.9032712 199.82110692 -20.89965571 197.64374622 -20.89426994 195.46639061 C-20.88703988 192.42313356 -20.8860099 189.37993414 -20.88647461 186.33666992 C-20.88287933 185.43108337 -20.87928406 184.52549683 -20.87557983 183.59246826 C-20.8769545 182.76375717 -20.87832916 181.93504608 -20.87974548 181.08122253 C-20.87836279 180.00134205 -20.87836279 180.00134205 -20.87695217 178.89964581 C-20.93373761 176.77504574 -20.93373761 176.77504574 -22 174 C-23.68029297 173.87044922 -23.68029297 173.87044922 -25.39453125 173.73828125 C-26.86730421 173.59757046 -28.33995495 173.45557617 -29.8125 173.3125 C-30.55048828 173.25900391 -31.28847656 173.20550781 -32.04882812 173.15039062 C-35.71737987 172.76859565 -37.57128561 172.49644962 -40.02734375 169.65234375 C-41.3266099 166.10936498 -40.83835362 163.63286568 -40 160 C-39 159 -39 159 -37.23413086 158.88647461 C-36.48526611 158.89171143 -35.73640137 158.89694824 -34.96484375 158.90234375 C-33.87224243 158.90609009 -33.87224243 158.90609009 -32.75756836 158.90991211 C-31.8269458 158.91901611 -30.89632324 158.92812012 -29.9375 158.9375 C-25.5134375 158.9684375 -25.5134375 158.9684375 -21 159 C-21 150.09 -21 141.18 -21 132 C-26.13054699 132.03945685 -26.13054699 132.03945685 -31.26098633 132.09008789 C-34.44381813 132.10246624 -36.96056322 132.01314559 -40 131 C-41.88500391 128.45524472 -42.00788658 127.12881419 -41.8125 123.9375 C-40.97659817 120.91539337 -40.52765737 119.77872185 -38 118 C-34.42944706 116.79048555 -30.99275613 116.90007244 -27.25 116.9375 C-25.49429688 116.95103516 -25.49429688 116.95103516 -23.703125 116.96484375 C-22.81109375 116.97644531 -21.9190625 116.98804688 -21 117 C-21.00785522 115.37880249 -21.00785522 115.37880249 -21.01586914 113.72485352 C-21.1069417 93.12562115 -21.13771764 72.57574463 -20 52 C-21.22332031 51.74089844 -22.44664063 51.48179687 -23.70703125 51.21484375 C-30.46186008 49.51163322 -34.8197644 45.21965025 -38.6796875 39.51953125 C-42.7495623 31.73618312 -43.38022257 23.36938776 -41.5234375 14.80078125 C-38.26920053 6.07707372 -30.95151758 1.07840316 -23 -3 C-14.97888257 -5.67370581 -7.397709 -3.68246371 0 0 Z M-26 14 C-29.02065626 18.75982199 -29.37869625 22.50738529 -28.50390625 27.921875 C-27.4734085 32.17167966 -25.99415276 34.29681878 -22.4375 36.8125 C-17.82495055 38.40592617 -13.81961726 38.95174116 -9 38 C-4.73879632 35.58401479 -1.88732467 32.52428763 0 28 C0.56471661 23.01166992 -0.07669334 19.72157854 -2.7421875 15.57421875 C-5.71765663 11.85026204 -9.28321209 9.91888212 -13.875 8.9375 C-18.88349039 8.54335776 -22.39899325 10.66328733 -26 14 Z M343.5546875 368.79296875 C340.40010645 374.14252053 339.89311096 379.95403788 341 386 C343.58345688 392.30823545 346.91258731 396.88865573 353 400 C358.67967613 401.89322538 362.84319242 401.3270046 368.1875 398.8125 C373.20734913 396.10071504 375.87361482 393.47804739 378.25 388.25 C379.48879878 382.88187194 379.72380679 378.1288435 377.9375 372.875 C374.62519958 367.95997356 370.62806469 363.2177504 365 361 C356.1331085 359.5477847 349.25583596 361.72046296 343.5546875 368.79296875 Z M-21.9375 378.125 C-23.50422245 380.88980433 -23.38976435 382.88188517 -23 386 C-21.34529569 388.6659125 -20.10585006 388.97072232 -17.0625 389.8125 C-13.81663715 390.0112263 -12.53836472 389.99442942 -10 388 C-8.41387499 385.74303573 -8.41387499 385.74303573 -8 383 C-9.31764207 380.10118744 -10.12125337 378.43937332 -13 377 C-17.66285278 376.57621401 -17.66285278 376.57621401 -21.9375 378.125 Z " fill="#000000" transform="translate(108,80)"/>
</svg>
